<mxfile host="app.diagrams.net" modified="2024-04-12T01:18:17.216Z" agent="Mozilla/5.0 (Macintosh; Intel Mac OS X 10.15; rv:124.0) Gecko/20100101 Firefox/124.0" version="24.2.3" etag="elr4p6lyUVBA1K-yioHY" type="github">
  <diagram name="Page-1" id="RjByC9-5Gul8dncCEaZV">
    <mxGraphModel>
      <root>
        <mxCell id="0" />
        <mxCell id="1" parent="0" />
      </root>
    </mxGraphModel>
  </diagram>
</mxfile>
